<?xml version="1.0" encoding="UTF-8"?>
<svg width="143px" height="79px" viewBox="0 0 143 79" version="1.1" xmlns="http://www.w3.org/2000/svg" xmlns:xlink="http://www.w3.org/1999/xlink">
    <title>Group</title>
    <g id="logo-design" stroke="none" stroke-width="1" fill="none" fill-rule="evenodd">
        <g id="Artboard" transform="translate(-9.000000, -6.000000)">
            <g id="Group" transform="translate(9.000000, 6.000000)">
                <g id="M" transform="translate(0.000000, 1.696248)">
                    <polyline id="Fill-22" fill="#122950" points="45.4204258 0 53.6231029 0 61.0672223 54.1277075 52.8635958 54.1277075 45.4204258 0"></polyline>
                    <polyline id="Fill-24" fill="#087B92" points="45.4204258 0 53.6231029 0 34.6354244 54.1277075 26.4317979 54.1277075 45.4204258 0"></polyline>
                    <polyline id="Fill-25" fill="#087B92" points="15.6467965 0 7.44411936 0 0 54.1277075 8.20267712 54.1277075 15.6467965 0"></polyline>
                    <polyline id="Fill-26" fill="#122950" points="15.6467965 0 7.44411936 0 26.4317979 54.1277075 34.6354244 54.1277075 15.6467965 0"></polyline>
                </g>
                <path d="M65.5,55.5 L69.5,48.5 L87.9075008,48.6940743 C91.958522,48.6940743 95.2538336,45.4312631 95.2538336,41.4213508 C95.2538336,37.4123783 91.958522,34.1505068 87.9075008,34.1505068 L84.6197842,34.1505068 C75.1079067,34.1505068 67.3694783,26.4906064 67.3694783,17.0752534 C67.3694783,7.65990041 75.1079067,0 84.6197842,0 L102.5,0 L98,7 L84.6197842,7.12988154 C79.0791796,7.12988154 74.5724541,11.5908737 74.5724541,17.0752534 C74.5724541,22.5596331 79.0791796,27.0206253 84.6197842,27.0206253 L87.9075008,27.0206253 C95.9297949,27.0206253 102.456809,33.481405 102.456809,41.4213508 C102.456809,49.3631762 95.9297949,55.8239558 87.9075008,55.8239558 L65.5,55.5 Z" id="Fill-19" fill="#087B92"></path>
                <path d="M104.5,55.5 L108.5,48.5 L126.907501,48.6940743 C130.958522,48.6940743 134.253834,45.4312631 134.253834,41.4213508 C134.253834,37.4123783 130.958522,34.1505068 126.907501,34.1505068 L123.619784,34.1505068 C114.107907,34.1505068 106.369478,26.4906064 106.369478,17.0752534 C106.369478,7.65990041 114.107907,0 123.619784,0 L141.5,0 L137,7 L123.619784,7.12988154 C118.07918,7.12988154 113.572454,11.5908737 113.572454,17.0752534 C113.572454,22.5596331 118.07918,27.0206253 123.619784,27.0206253 L126.907501,27.0206253 C134.929795,27.0206253 141.456809,33.481405 141.456809,41.4213508 C141.456809,49.3631762 134.929795,55.8239558 126.907501,55.8239558 L104.5,55.5 Z" id="Fill-19" fill="#122950"></path>
                <text id="MSOFTSOLUTION" font-family="Montserrat-Light, Montserrat" font-size="16" font-weight="300" letter-spacing="-0.0457333333">
                    <tspan x="0.331188813" y="74.5598309" fill="#122950">M</tspan>
                    <tspan x="15.5814555" y="74.5598309" fill="#007C94">SOFT</tspan>
                    <tspan x="57.5265221" y="74.5598309" fill="#122950">SOLUTION</tspan>
                </text>
            </g>
        </g>
    </g>
</svg>